<svg width="140" height="140" viewBox="0 0 140 140" fill="none" xmlns="http://www.w3.org/2000/svg">
<mask id="mask0_410_6" style="mask-type:alpha" maskUnits="userSpaceOnUse" x="0" y="0" width="140" height="140">
<rect width="140" height="140" fill="#D9D9D9"/>
</mask>
<g mask="url(#mask0_410_6)">
<path d="M100.844 140H43.7239C39.6079 140 37.1719 136.304 37.1719 133.084C37.1719 131.18 37.9559 129.444 39.1879 128.212L64.1079 103.292L100.844 140Z" fill="#FF4F12"/>
<path d="M43.7244 140C39.4124 140 34.0084 136.556 34.0084 129.696V52.892C34.0084 42.504 33.4764 35.224 40.8964 27.804L68.7004 0L118.008 49.392L39.1884 128.212C37.9284 129.472 37.1724 131.18 37.1724 133.084C37.1724 136.304 39.6084 140 43.7244 140Z" fill="#7700FF"/>
</g>
</svg>
